<?xml version="1.0" encoding="UTF-8"?>
<!DOCTYPE svg PUBLIC "-//W3C//DTD SVG 1.1//EN" "http://www.w3.org/Graphics/SVG/1.1/DTD/svg11.dtd">
<!-- Creator: CorelDRAW 2020 (64-Bit) -->
<svg xmlns="http://www.w3.org/2000/svg" xml:space="preserve" width="90mm" height="50mm" version="1.1" style="shape-rendering:geometricPrecision; text-rendering:geometricPrecision; image-rendering:optimizeQuality; fill-rule:evenodd; clip-rule:evenodd"
viewBox="0 0 9000 5000"
 xmlns:xlink="http://www.w3.org/1999/xlink"
 xmlns:xodm="http://www.corel.com/coreldraw/odm/2003">
 <defs>
  <style type="text/css">
   <![CDATA[
    .str0 {stroke:white;stroke-width:20;stroke-miterlimit:22.9256}
    .fil0 {fill:none}
    .fil1 {fill:white}
   ]]>
  </style>
    <clipPath id="id0">
     <path d="M6863.61 736.92c359.99,0 651.82,291.83 651.82,651.82 0,359.99 -291.83,651.82 -651.82,651.82 -359.99,0 -651.82,-291.83 -651.82,-651.82 0,-359.99 291.83,-651.82 651.82,-651.82z"/>
    </clipPath>
 </defs>
 <g id="Capa_x0020_1">
  <metadata id="CorelCorpID_0Corel-Layer"/>
  <g>
   <g style="clip-path:url(#id0)">
    <image x="6211.79" y="736.92" width="1303.64" height="1303.64" xlink:href="logo_Images\logo_ImgID1.png"/>
   </g>
   <path class="fil0 str0" d="M6863.61 736.92c359.99,0 651.82,291.83 651.82,651.82 0,359.99 -291.83,651.82 -651.82,651.82 -359.99,0 -651.82,-291.83 -651.82,-651.82 0,-359.99 291.83,-651.82 651.82,-651.82z"/>
  </g>
  <path class="fil1" d="M7435.49 1702.77c-25.64,44.41 -56.38,85.5 -91.45,122.46l-105.22 0 0.07 0.13 -122.13 0 -0.07 -0.13 -158.04 -304.88c-1.27,0 -2.75,0 -4.66,0.21 -1.9,0.22 -3.17,0.43 -4.02,0.43l-248.71 0 0 302.54 0 1.2 0 179.23c-42.63,-11.76 -83.51,-27.74 -122.13,-47.52l0 -131.71 0 -1.2 0 -424.67 370.84 0c46.35,0 85.72,-16.3 118.11,-48.69 32.38,-32.59 48.68,-71.96 48.68,-118.32 0,-46.14 -16.3,-85.51 -48.68,-118.11 -32.39,-32.38 -71.76,-48.68 -118.11,-48.68l-370.84 0 -271.73 0c24.38,-43.85 53.67,-84.6 87.19,-121.45l184.54 0 0 -0.05 370.84 0 5.36 0.05 1.94 0.04 0.4 0.01 2.02 0.05 0.32 0.01 2.09 0.08 0.24 0.01 2.17 0.09 0.16 0.01 2.25 0.11 0.07 0.01 4.07 0.25 0.56 0.04 0.09 0.01 2.21 0.16 0.18 0.01 2.12 0.18 0.26 0.02 2.04 0.19 0.34 0.03 1.95 0.19 0.42 0.05 1.86 0.2 0.5 0.05 1.78 0.21 0.58 0.06 1.7 0.21 0.66 0.09 1.61 0.21 0.74 0.1 1.52 0.21 0.82 0.12 1.44 0.21 0.9 0.14 1.35 0.21 0.98 0.16 1.27 0.21 1.06 0.17 1.19 0.21 1.13 0.2 1.1 0.2 1.21 0.22 1.03 0.2 1.28 0.25 0.95 0.18 1.36 0.28 0.86 0.18 1.43 0.3 0.79 0.17 1.51 0.33 0.7 0.15 1.58 0.37 0.62 0.14 1.67 0.39 0.54 0.13 1.73 0.43 0.46 0.11 1.81 0.46 0.39 0.1 1.88 0.5 0.3 0.08 1.96 0.53 0.22 0.06 2.03 0.57 0.15 0.04 2.1 0.61 0.07 0.02 2.16 0.64 0.01 0.01 2.15 0.66 0.09 0.02 2.07 0.66 0.16 0.05 1.99 0.65 0.24 0.07 1.9 0.64 0.32 0.11 1.82 0.62 0.39 0.14 1.75 0.61 0.46 0.17 1.67 0.6 0.53 0.2 1.59 0.59 0.61 0.23 1.51 0.57 0.68 0.26 1.43 0.56 0.76 0.3 1.35 0.54 0.83 0.33 1.27 0.52 0.91 0.38 1.19 0.5 0.98 0.41 1.12 0.48 1.04 0.45 1.04 0.45 1.12 0.5 0.97 0.43 1.19 0.54 0.88 0.4 1.26 0.58 0.81 0.38 1.34 0.63 0.73 0.35 1.4 0.67 0.66 0.32 1.47 0.72 0.59 0.29 1.54 0.77 0.51 0.26 1.61 0.82 0.43 0.23 1.68 0.87 0.37 0.19 1.74 0.93 0.29 0.15 1.81 0.98 0.22 0.12 1.88 1.04 0.15 0.08 1.94 1.09 0.08 0.04 2.01 1.15c44.45,25.62 79.59,60.54 105.41,104.99 25.82,44.45 38.73,92.71 38.73,144.78 0,58 -15.66,110.49 -46.99,157.9 -31.53,47.42 -72.81,82.55 -124.03,105.84l107.44 207.18 260.18 0z"/>
 </g>
</svg>
